HIERARCHY
ROOT Hips
{
	OFFSET 0.00 0.00 0.00
	CHANNELS 6 Xposition Yposition Zposition Xrotation Yrotation Zrotation
	JOINT Spine
	{
		OFFSET 0.00000 1.15266 1.72900
		CHANNELS 3 Xrotation Yrotation Zrotation
		JOINT Spine1
		{
			OFFSET 0.00000 0.40032 2.27031
			CHANNELS 3 Xrotation Yrotation Zrotation
			JOINT Spine2
			{
				OFFSET 0.00000 0.20092 2.29656
				CHANNELS 3 Xrotation Yrotation Zrotation
				JOINT Spine3
				{
					OFFSET 0.00000 0.00000 2.30533
					CHANNELS 3 Xrotation Yrotation Zrotation
					JOINT Neck
					{
						OFFSET 0.00000 -0.86449 6.05149
						CHANNELS 3 Xrotation Yrotation Zrotation
						JOINT Head
						{
							OFFSET 0.00000 -0.55043 3.12167
							CHANNELS 3 Xrotation Yrotation Zrotation
							End Site
							{
								OFFSET 0.00000 0.00000 3.73175
							}
						}
					}
					JOINT RightShoulder
					{
						OFFSET -0.78828 -1.31380 4.25672
						CHANNELS 3 Xrotation Yrotation Zrotation
						JOINT RightArm
						{
							OFFSET -3.91513 0.00000 0.00000
							CHANNELS 3 Xrotation Yrotation Zrotation
							JOINT RightForeArm
							{
								OFFSET -6.91491 0.00000 0.00000
								CHANNELS 3 Xrotation Yrotation Zrotation
								JOINT RightHand
								{
									OFFSET -6.09622 0.00000 0.00000
									CHANNELS 3 Xrotation Yrotation Zrotation
									JOINT RightHandEnd
									{
										OFFSET -1.74995 0.00000 0.00000
										CHANNELS 3 Xrotation Yrotation Zrotation
										End Site
										{
											OFFSET -1.74995 0.00000 0.00000
										}
									}
									JOINT RightHandThumb1
									{
										OFFSET -0.69998 -1.16663 -0.46665
										CHANNELS 3 Yrotation Xrotation Zrotation
										End Site
										{
											OFFSET -1.69032 -0.45292 0.00000
										}
									}
								}
							}
						}
					}
					JOINT LeftShoulder
					{
						OFFSET 0.78828 -1.31380 4.25672
						CHANNELS 3 Xrotation Yrotation Zrotation
						JOINT LeftArm
						{
							OFFSET 3.91513 0.00000 0.00000
							CHANNELS 3 Xrotation Yrotation Zrotation
							JOINT LeftForeArm
							{
								OFFSET 6.91491 0.00000 0.00000
								CHANNELS 3 Xrotation Yrotation Zrotation
								JOINT LeftHand
								{
									OFFSET 6.09622 0.00000 0.00000
									CHANNELS 3 Xrotation Yrotation Zrotation
									JOINT LeftHandEnd
									{
										OFFSET 1.74995 0.00000 0.00000
										CHANNELS 3 Xrotation Yrotation Zrotation
										End Site
										{
											OFFSET 1.74995 0.00000 0.00000
										}
									}
									JOINT LeftHandThumb1
									{
										OFFSET 0.69998 -1.16663 -0.46665
										CHANNELS 3 Yrotation Xrotation Zrotation
										End Site
										{
											OFFSET 1.69032 -0.45292 0.00000
										}
									}
								}
							}
						}
					}
				}
			}
		}
	}
	JOINT RightUpLeg
	{
		OFFSET -2.33857 0.00000 -0.68318
		CHANNELS 3 Xrotation Yrotation Zrotation
		JOINT RightLeg
		{
			OFFSET 0.00000 0.00000 -10.74496
			CHANNELS 3 Xrotation Yrotation Zrotation
			JOINT RightFoot
			{
				OFFSET 0.00000 0.00000 -10.93085
				CHANNELS 3 Xrotation Yrotation Zrotation
				JOINT RightToeBase
				{
					OFFSET 0.00000 -4.08727 -1.48765
					CHANNELS 3 Xrotation Yrotation Zrotation
					End Site
					{
						OFFSET 0.00000 -1.89187 -0.00000
					}
				}
			}
		}
	}
	JOINT LeftUpLeg
	{
		OFFSET 2.33857 0.00000 -0.68318
		CHANNELS 3 Xrotation Yrotation Zrotation
		JOINT LeftLeg
		{
			OFFSET 0.00000 0.00000 -10.74496
			CHANNELS 3 Xrotation Yrotation Zrotation
			JOINT LeftFoot
			{
				OFFSET 0.00000 0.00000 -10.93085
				CHANNELS 3 Xrotation Yrotation Zrotation
				JOINT LeftToeBase
				{
					OFFSET 0.00000 -4.08727 -1.48765
					CHANNELS 3 Xrotation Yrotation Zrotation
					End Site
					{
						OFFSET 0.00000 -1.89187 -0.00000
					}
				}
			}
		}
	}
}
MOTION
Frames: 9
Frame Time:	0.05
 -5.0664 2.8250 20.8636 -16.3114 -2.7487 156.8602 5.4897 -1.5770 -0.2202 1.6888 0.0574 -0.2900 0.0063 -3.3098 -0.5292 -1.4440 -1.8024 1.9716 -13.7507 -7.1644 -10.9139 -14.7418 1.6940 -9.8816 -17.5879 12.8932 1.0339 -86.9379 14.7043 24.3184 -0.0000 0.0001 65.8113 14.2361 18.5997 -1.7323 -0.0000 0.0000 0.0000 -0.0000 -0.0000 -0.0000 -7.8715 -12.5048 -2.8671 -70.9806 -21.7824 -21.6783 -0.0000 -0.0000 -56.3856 1.8681 -48.8851 -19.8697 0.0000 -0.0000 0.0000 0.0000 -0.0000 0.0000 -13.9674 23.5871 0.2564 20.1291 0.0000 0.0000 -18.2658 -34.3084 -2.4521 4.7167 0.0000 0.0000 -34.5819 -47.9072 6.8626 42.3149 0.0000 0.0000 -5.5712 35.5520 -14.3078 3.7234 0.0000 0.0000
 -5.1806 2.0336 22.3754 -13.7591 -3.2051 150.5481 10.0236 0.0445 -0.9082 3.8362 -0.5084 -0.2130 0.7252 -2.0094 1.8380 -3.6435 -2.3805 2.3066 -16.4357 -2.4668 -10.2498 -26.4107 -0.8428 -11.6839 -15.8576 23.2572 3.1012 -84.2283 15.1464 -29.3329 -0.0000 0.0001 85.1002 -16.0761 39.5832 20.3942 0.0000 -0.0000 0.0000 0.0000 -0.0000 0.0000 -0.4092 -13.5039 -6.3492 -62.2963 -14.4122 6.0450 -0.0000 -0.0000 -37.8766 24.5012 -58.5683 8.0714 0.0000 -0.0000 -0.0000 -0.0000 0.0000 -0.0000 -15.7206 21.1900 -2.6191 14.8034 0.0000 0.0000 6.3723 -29.1248 10.6787 3.2022 0.0000 0.0000 -21.2683 -43.8692 8.3664 30.4552 0.0000 0.0000 1.1023 30.6417 -0.8287 -0.1389 0.0000 -0.0000
 -5.2958 1.3763 24.6181 -15.4260 0.6626 152.8344 6.8601 0.9441 -1.9848 1.4821 1.9228 -0.3262 1.6510 -1.0854 -2.3148 -1.3505 -1.4087 0.6225 -14.5580 -9.0593 -10.3564 -29.3025 -4.3851 -8.9439 9.8565 3.7927 2.5707 -62.2475 -3.9023 -30.7817 -0.0000 0.0001 60.5709 -2.8437 3.8711 -3.2350 0.0000 0.0000 0.0000 -0.0000 0.0000 0.0000 8.1086 -6.2439 -7.6408 -25.0482 4.7765 6.7421 -0.0000 -0.0000 -19.4570 6.0779 -5.5767 -2.1204 0.0000 0.0000 -0.0000 0.0000 0.0000 -0.0000 -24.5650 18.4792 -9.6475 22.7219 0.0000 0.0000 12.2609 -18.2620 1.6142 5.7904 0.0000 0.0000 -16.1003 -33.2045 26.4538 12.7682 0.0000 0.0000 13.2660 13.8373 -4.5041 2.1819 0.0000 0.0000
 -5.4417 0.6675 25.2042 -11.8647 2.0798 150.3490 10.8995 3.3651 -2.3855 1.6591 1.1641 -0.1536 0.5539 0.0259 -2.0793 -1.5149 -1.2961 0.0068 -17.6472 -11.2503 -9.1193 -16.5877 -4.9365 -4.3778 12.9497 2.5091 6.2189 -32.2207 -33.0630 -20.9553 -0.0000 0.0001 89.8657 32.6994 -22.9290 -2.0494 -0.0000 0.0000 0.0000 0.0000 -0.0000 0.0000 11.2726 1.4128 -8.6646 -5.1285 28.1568 -11.1067 -0.0000 -0.0000 -43.8081 33.4825 -2.5359 -1.4951 -0.0000 0.0000 0.0000 -0.0000 -0.0000 0.0000 -31.0324 10.1967 -7.0509 38.8598 0.0000 0.0000 5.9093 -14.7272 5.4406 1.1992 0.0000 0.0000 -18.2705 -25.0171 35.6579 40.1343 0.0000 0.0000 -4.9747 5.4844 0.4152 -2.9644 0.0000 -0.0000
 -5.6821 0.3858 24.1639 -10.3195 2.9188 149.2727 8.5710 3.4327 -1.9042 1.5008 0.9011 -0.2488 4.9458 0.6300 -3.9551 -1.6999 -1.7843 -1.1979 -20.4346 -11.7956 -8.1911 -0.0222 -4.2433 -4.3685 3.0524 -3.7819 8.7099 -28.3449 -35.8742 -9.9467 -0.0001 0.0001 121.0635 1.7799 -23.7099 2.6142 -0.0000 0.0000 -0.0000 0.0000 -0.0000 0.0000 10.4586 16.9973 -8.3855 -2.4042 37.0010 -18.5638 -0.0000 -0.0001 -81.6710 20.1228 8.6451 -5.9060 -0.0000 0.0000 0.0000 0.0000 0.0000 0.0000 -26.2031 6.2821 -6.1228 34.5407 0.0000 0.0000 -11.8304 -11.6198 0.0781 1.2581 0.0000 0.0000 -13.3256 -12.4776 35.4899 38.3826 0.0000 0.0000 -20.6630 8.3537 15.6604 -1.5884 0.0000 -0.0000
 -5.6752 0.2559 25.0677 -10.1744 1.4717 145.3292 6.2534 3.4010 -1.3757 1.3008 1.1671 -0.0992 10.6042 -0.0499 -1.7580 -2.0236 -3.2234 -0.3940 -23.6868 -10.4289 -9.5136 7.6968 -5.4695 -6.8868 2.7868 -6.9007 3.7310 -35.4489 -39.0843 -3.6184 -0.0001 0.0001 119.5151 -37.6227 -35.6465 14.5066 0.0000 0.0000 0.0000 0.0000 -0.0000 0.0000 5.4300 17.3165 -7.2069 4.2038 40.2021 -19.3832 -0.0001 -0.0001 -108.1374 5.4305 24.8367 -4.3758 -0.0000 -0.0000 -0.0000 0.0000 0.0000 0.0000 -21.6308 6.4366 -7.7336 24.1867 0.0000 0.0000 4.5445 -16.3000 13.8785 1.7720 0.0000 0.0000 -10.1388 -13.9410 35.9379 32.4408 0.0000 0.0000 -11.0575 11.8932 15.7040 -4.0522 0.0000 -0.0000
 -5.4410 0.1813 26.0765 -9.9607 2.1784 148.9453 5.2280 5.2850 -1.1947 0.8001 1.2781 -0.2409 5.4950 -1.1393 -4.4998 -0.0528 -3.0049 -0.5993 -11.0858 -11.1265 -8.8131 -1.4329 -1.8959 -8.4274 1.6186 0.1908 1.8692 -25.6136 -26.3971 -0.1208 -0.0000 0.0001 98.6953 -16.8501 -26.4292 6.2844 -0.0000 0.0000 -0.0000 -0.0000 -0.0000 -0.0000 6.1966 3.3628 -4.2947 -20.0458 27.6834 -7.5346 -0.0001 -0.0001 -104.9274 1.2269 32.2667 -4.3514 0.0000 0.0000 -0.0000 0.0000 -0.0000 -0.0000 -12.7320 9.7905 -9.5631 7.0638 0.0000 0.0000 22.2429 -22.4318 24.4551 3.4469 0.0000 0.0000 -17.8270 -22.8586 32.8345 42.2691 0.0000 0.0000 12.3490 5.2698 -2.4099 -4.9744 0.0000 -0.0000
 -5.4542 -0.1247 25.3284 -8.5080 3.0515 150.8354 8.5729 5.4755 -1.2727 1.5520 1.4780 -0.1787 -1.3418 -0.2130 -4.1123 -1.2738 -1.9487 0.2312 -0.5164 -10.2491 -8.3502 -20.9098 -0.3469 -11.8735 -2.1467 8.8537 4.3792 -23.0823 -6.4793 -4.5768 -0.0000 0.0001 87.3850 57.0846 -25.3792 -5.7545 -0.0000 -0.0000 -0.0000 0.0000 -0.0000 0.0000 -1.7311 -11.1604 -10.2086 -15.4364 -1.2327 -5.8066 -0.0001 -0.0001 -87.1310 43.3433 18.2729 6.7141 0.0000 0.0000 0.0000 0.0000 -0.0000 0.0000 -13.7404 15.7398 1.4522 18.7944 0.0000 0.0000 4.3677 -17.3232 3.3321 3.0873 0.0000 0.0000 -23.5399 -27.7137 23.5320 38.8399 0.0000 0.0000 6.5362 8.5987 4.1450 -2.6242 0.0000 -0.0000
 -5.5931 -0.0955 23.0407 -9.6022 3.3022 149.7246 9.1570 3.1512 -1.2063 1.0715 1.4094 -0.1512 -2.1388 -0.7839 -1.8310 -1.5725 -1.4553 0.9597 1.0465 -5.3882 -7.8849 -44.0771 1.1963 -12.6940 0.3009 22.9584 7.4877 -68.0169 9.4869 -21.0889 -0.0000 0.0001 98.5570 21.1676 -1.2561 -8.9678 0.0000 0.0000 0.0000 -0.0000 -0.0000 -0.0000 3.4168 -26.4920 -9.3235 -48.5207 -12.1256 7.0165 -0.0001 -0.0001 -87.9037 41.7702 14.8068 7.7284 -0.0000 -0.0000 -0.0000 -0.0000 -0.0000 -0.0000 -18.3020 20.9533 7.4170 31.8783 0.0000 0.0000 -10.5092 -23.7237 -0.0146 1.2777 0.0000 0.0000 -22.7830 -34.0748 10.2819 24.7798 0.0000 0.0000 11.5348 22.9273 -6.9006 -0.0980 0.0000 -0.0000
